<?xml version="1.0" standalone="no"?>
<svg width="800" height="510" viewBox="0 0 800 510" xmlns="http://www.w3.org/2000/svg" xmlns:xlink="http://www.w3.org/1999/xlink">
<title>Simple 7-crossing quasi-Celtic linear knot</title>
<g transform="translate(400,255)scale(0.41,-0.41)" fill="none" stroke-width="200" stroke="rgb(0,0,0)">
<path id="Main" stroke-linejoin="round" d="M-353.553,353.553 A500,500 0 0,1-836.516,482.963 A500,500 0 0,1-707.107,0L-353.553-353.553A500,500 0 0,1 353.553-353.553L707.107,0A500,500 0 0,1 836.516,482.963A500,500 0 0,1 353.553,353.553L-353.553-353.553A500,500 0 0,0-836.516-482.963A500,500 0 0,0-707.107,0L-353.553,353.553A500,500 0 0,0 353.553,353.553L707.107,0A500,500 0 0,0 836.516-482.963A500,500 0 0,0 353.553-353.553Z"/>
<use xlink:href="#Main" stroke-width="120" stroke="rgb(235,245,255)"/>
<path d="M-75,75L75-75"/>
<path id="X" d="M-831.706,207.367A500,500 0 0,1-707.107,0L-557.107-150
M17.4497-499.695A500,500 0 0,1 353.553-353.553L503.553-203.553
M-689.657-499.695A500,500 0 0,1-353.553-353.553L-203.553-203.553"/>
<use xlink:href="#X" transform="rotate(180)"/>
<g stroke-width="120" stroke="rgb(235,245,255)"><path d="M-85,85L85-85"/>
<path id="Z" d="M-836.516,224.144A500,500 0 0,1-707.107,0L-547.107-160
M0-500A500,500 0 0,1 353.553-353.553L513.553-193.553
M-707.107-500A500,500 0 0,1-353.553-353.553L-193.553-193.553"/>
<use xlink:href="#Z" transform="rotate(180)"/></g></g></svg>